<svg width="22" height="20" viewBox="0 0 22 20" fill="none" xmlns="http://www.w3.org/2000/svg">
<path d="M11 4C14.6254 4 17.8757 5.94905 19.5954 9.06811C19.7437 9.33712 19.7447 9.66314 19.597 9.93247C19.2037 10.6495 18.7252 11.3023 18.1794 11.884C17.7861 12.3032 17.7568 12.9668 18.1632 13.3732C18.5323 13.7423 19.1282 13.7632 19.4914 13.3885C20.4763 12.3721 21.2804 11.1838 21.8504 9.86347C21.9505 9.63153 21.9502 9.36852 21.8498 9.1367C20.0319 4.9394 15.8609 2 11 2C10.2997 2 9.61457 2.06082 8.94802 2.17742C8.21124 2.3063 7.98874 3.19874 8.51763 3.72763L8.63157 3.84157C8.86799 4.07799 9.20645 4.17757 9.53661 4.1248C10.0163 4.04811 10.5028 4 11 4ZM9.93 5.14L12 7.21C12.57 7.46 13.03 7.92 13.28 8.49L15.35 10.56C15.43 10.22 15.49 9.86 15.49 9.49C15.5 7.01 13.48 5 11 5C10.63 5 10.28 5.05 9.93 5.14ZM1.71241 1.16261C1.32424 1.55353 1.32506 2.18506 1.71461 2.57461L3.69 4.55C2.161 5.75069 0.931164 7.32095 0.149075 9.13696C0.0492885 9.36866 0.0497252 9.63126 0.149978 9.86276C1.96774 14.0603 6.13886 17 11 17C12.52 17 13.98 16.71 15.32 16.18L18.0349 18.8949C18.4243 19.2843 19.0557 19.2843 19.4451 18.8949C19.8344 18.5056 19.8345 17.8743 19.4453 17.4849L3.12961 1.16001C2.73814 0.768323 2.1026 0.76965 1.71241 1.16261ZM8.51 9.37L11.12 11.98C11.08 11.99 11.04 12 11 12C9.62 12 8.5 10.88 8.5 9.5C8.5 9.45 8.51 9.42 8.51 9.37ZM5.11 5.97L6.86 7.72C6.63 8.27 6.5 8.87 6.5 9.5C6.5 11.98 8.52 14 11 14C11.63 14 12.23 13.87 12.77 13.64L13.75 14.62C12.87 14.86 11.95 15 11 15C7.37556 15 4.12609 13.052 2.40603 9.93448C2.25683 9.66405 2.25661 9.33605 2.40642 9.06595C3.09221 7.8296 4.02467 6.79521 5.11 5.97Z" fill="#172A3A"/>
</svg>
