<svg width="24" height="24" viewBox="0 0 24 24" fill="none" xmlns="http://www.w3.org/2000/svg">
<path fill-rule="evenodd" clip-rule="evenodd" d="M3.6 2.4C3.28174 2.4 2.97652 2.52643 2.75147 2.75147C2.52643 2.97652 2.4 3.28174 2.4 3.6V20.4C2.4 20.7183 2.52643 21.0235 2.75147 21.2485C2.97652 21.4736 3.28174 21.6 3.6 21.6H8.4C9.06274 21.6 9.6 22.1373 9.6 22.8C9.6 23.4627 9.06274 24 8.4 24H3.6C2.64522 24 1.72955 23.6207 1.05442 22.9456C0.379285 22.2705 0 21.3548 0 20.4V3.6C0 2.64522 0.379284 1.72955 1.05442 1.05442C1.72955 0.379284 2.64522 0 3.6 0H8.4C9.06274 0 9.6 0.537258 9.6 1.2C9.6 1.86274 9.06274 2.4 8.4 2.4H3.6Z" fill="#728CA2"/>
<path fill-rule="evenodd" clip-rule="evenodd" d="M15.9511 5.15147C16.4197 4.68284 17.1795 4.68284 17.6481 5.15147L23.6481 11.1515C24.1168 11.6201 24.1168 12.3799 23.6481 12.8485L17.6481 18.8485C17.1795 19.3172 16.4197 19.3172 15.9511 18.8485C15.4825 18.3799 15.4825 17.6201 15.9511 17.1515L21.1026 12L15.9511 6.84853C15.4825 6.3799 15.4825 5.6201 15.9511 5.15147Z" fill="#728CA2"/>
<path fill-rule="evenodd" clip-rule="evenodd" d="M7.19922 12C7.19922 11.3373 7.73648 10.8 8.39922 10.8H22.7992C23.462 10.8 23.9992 11.3373 23.9992 12C23.9992 12.6627 23.462 13.2 22.7992 13.2H8.39922C7.73648 13.2 7.19922 12.6627 7.19922 12Z" fill="#728CA2"/>
</svg>
