<?xml version="1.0" standalone="no"?>
<!DOCTYPE svg PUBLIC "-//W3C//DTD SVG 20010904//EN"
 "http://www.w3.org/TR/2001/REC-SVG-20010904/DTD/svg10.dtd">
<svg version="1.0" xmlns="http://www.w3.org/2000/svg"
 width="512.000000pt" height="512.000000pt" viewBox="0 0 512.000000 512.000000"
 preserveAspectRatio="xMidYMid meet">

<g transform="translate(0.000000,512.000000) scale(0.100000,-0.100000)"
fill="#000000" stroke="none">
<path d="M2360 4949 c-408 -36 -798 -173 -1132 -397 -791 -531 -1194 -1477
-1027 -2415 86 -488 323 -933 685 -1289 543 -534 1320 -779 2069 -652 999 168
1783 945 1965 1947 70 386 37 816 -92 1192 -299 869 -1066 1492 -1977 1604
-126 16 -372 21 -491 10z m579 -1240 c290 -47 481 -212 553 -478 27 -100 30
-377 5 -487 -49 -214 -142 -339 -313 -423 -149 -73 -282 -91 -661 -91 l-273 0
0 -415 0 -415 -245 0 -245 0 0 1160 0 1160 558 0 c339 0 582 -4 621 -11z"/>
<path d="M2250 2976 l0 -336 258 0 c283 0 323 6 401 58 80 54 121 151 121 286
0 147 -55 249 -162 297 -51 23 -62 24 -335 27 l-283 3 0 -335z"/>
</g>
</svg>
