<svg width="20" height="20" viewBox="0 0 20 20" fill="none" xmlns="http://www.w3.org/2000/svg">
<path d="M17.4997 10C17.4997 9.77 17.4897 9.55 17.4697 9.32L19.3297 7.91C19.7297 7.61 19.8397 7.05 19.5897 6.61L17.7197 3.38C17.4697 2.94 16.9297 2.76 16.4697 2.96L14.3197 3.87C13.9497 3.61 13.5597 3.38 13.1497 3.19L12.8597 0.88C12.7997 0.38 12.3697 0 11.8697 0H8.13967C7.62967 0 7.19967 0.38 7.13967 0.88L6.84967 3.19C6.43967 3.38 6.04966 3.61 5.67967 3.87L3.52967 2.96C3.06967 2.76 2.52967 2.94 2.27967 3.38L0.409665 6.62C0.159665 7.06 0.269665 7.61 0.669665 7.92L2.52967 9.33C2.50967 9.55 2.49967 9.77 2.49967 10C2.49967 10.23 2.50967 10.45 2.52967 10.68L0.669665 12.09C0.269665 12.39 0.159665 12.95 0.409665 13.39L2.27967 16.62C2.52967 17.06 3.06967 17.24 3.52967 17.04L5.67967 16.13C6.04966 16.39 6.43967 16.62 6.84967 16.81L7.13967 19.12C7.19967 19.62 7.62967 20 8.12967 20H11.8597C12.3597 20 12.7897 19.62 12.8497 19.12L13.1397 16.81C13.5497 16.62 13.9397 16.39 14.3097 16.13L16.4597 17.04C16.9197 17.24 17.4597 17.06 17.7097 16.62L19.5797 13.39C19.8297 12.95 19.7197 12.4 19.3197 12.09L17.4597 10.68C17.4897 10.45 17.4997 10.23 17.4997 10ZM10.0397 13.5C8.10967 13.5 6.53967 11.93 6.53967 10C6.53967 8.07 8.10967 6.5 10.0397 6.5C11.9697 6.5 13.5397 8.07 13.5397 10C13.5397 11.93 11.9697 13.5 10.0397 13.5Z" fill="#828282"/>
</svg>
