<svg width="22" height="15" viewBox="0 0 22 15" fill="none" xmlns="http://www.w3.org/2000/svg">
<path d="M11 2C14.6244 2 17.8739 3.94795 19.5939 7.06548C19.7432 7.33593 19.7432 7.66407 19.5939 7.93452C17.8739 11.052 14.6244 13 11 13C7.37558 13 4.12612 11.0521 2.40606 7.93452C2.25684 7.66407 2.25684 7.33593 2.40606 7.06548C4.12612 3.94795 7.37558 2 11 2ZM11 0C6.13943 0 1.96872 2.93897 0.150616 7.13576C0.0499498 7.36814 0.0499497 7.63186 0.150616 7.86424C1.96872 12.061 6.13943 15 11 15C15.8606 15 20.0313 12.061 21.8494 7.86424C21.9501 7.63186 21.9501 7.36814 21.8494 7.13576C20.0313 2.93897 15.8606 0 11 0ZM11 5C12.38 5 13.5 6.12 13.5 7.5C13.5 8.88 12.38 10 11 10C9.62 10 8.5 8.88 8.5 7.5C8.5 6.12 9.62 5 11 5ZM11 3C8.52 3 6.5 5.02 6.5 7.5C6.5 9.98 8.52 12 11 12C13.48 12 15.5 9.98 15.5 7.5C15.5 5.02 13.48 3 11 3Z" fill="#172A3A"/>
</svg>
