<svg width="24" height="24" viewBox="0 0 24 24" fill="none" xmlns="http://www.w3.org/2000/svg">
<path fill-rule="evenodd" clip-rule="evenodd" d="M10.2 3.81818C9.96131 3.81818 9.73239 3.91396 9.5636 4.08445C9.39482 4.25494 9.3 4.48617 9.3 4.72727V5.63636H14.7V4.72727C14.7 4.48617 14.6052 4.25494 14.4364 4.08445C14.2676 3.91396 14.0387 3.81818 13.8 3.81818H10.2ZM16.5 5.63636V4.72727C16.5 4.00395 16.2155 3.31026 15.7092 2.7988C15.2028 2.28734 14.5161 2 13.8 2H10.2C9.48392 2 8.79716 2.28734 8.29081 2.7988C7.78446 3.31026 7.5 4.00395 7.5 4.72727V5.63636H3.9C3.40294 5.63636 3 6.04338 3 6.54545C3 7.04753 3.40294 7.45455 3.9 7.45455H4.8V19.2727C4.8 19.996 5.08446 20.6897 5.59081 21.2012C6.09716 21.7127 6.78391 22 7.5 22H16.5C17.2161 22 17.9028 21.7127 18.4092 21.2012C18.9155 20.6897 19.2 19.996 19.2 19.2727V7.45455H20.1C20.5971 7.45455 21 7.04753 21 6.54545C21 6.04338 20.5971 5.63636 20.1 5.63636H16.5ZM6.6 7.45455V19.2727C6.6 19.5138 6.69482 19.7451 6.8636 19.9156C7.03239 20.086 7.26131 20.1818 7.5 20.1818H16.5C16.7387 20.1818 16.9676 20.086 17.1364 19.9156C17.3052 19.7451 17.4 19.5138 17.4 19.2727V7.45455H6.6ZM10.2 10.1818C10.6971 10.1818 11.1 10.5888 11.1 11.0909V16.5455C11.1 17.0475 10.6971 17.4545 10.2 17.4545C9.70294 17.4545 9.3 17.0475 9.3 16.5455V11.0909C9.3 10.5888 9.70294 10.1818 10.2 10.1818ZM12.9 11.0909C12.9 10.5888 13.3029 10.1818 13.8 10.1818C14.2971 10.1818 14.7 10.5888 14.7 11.0909V16.5455C14.7 17.0475 14.2971 17.4545 13.8 17.4545C13.3029 17.4545 12.9 17.0475 12.9 16.5455V11.0909Z" fill="#EB5757"/>
</svg>
